<svg enable-background="new 0 0 48 48" viewBox="5.989994525909424 5.9899983406066895 36.01900863647461 36.01900863647461" xmlns="http://www.w3.org/2000/svg" xmlns:xlink="http://www.w3.org/1999/xlink"><radialGradient id="a" cx="19.3802" cy="42.0351" gradientUnits="userSpaceOnUse" r="44.8989"><stop offset="0" stop-color="#fd5"></stop><stop offset=".328" stop-color="#ff543f"></stop><stop offset=".3484" stop-color="#fc5245"></stop><stop offset=".5039" stop-color="#e64771"></stop><stop offset=".6433" stop-color="#d53e91"></stop><stop offset=".7606" stop-color="#cc39a4"></stop><stop offset=".8414" stop-color="#c837ab"></stop></radialGradient><radialGradient id="b" cx="11.7859" cy="5.5401" gradientTransform="matrix(1 0 0 .6663 0 1.849)" gradientUnits="userSpaceOnUse" r="29.8134"><stop offset="0" stop-color="#4168c9"></stop><stop offset=".9988" stop-color="#4168c9" stop-opacity="0"></stop></radialGradient><path d="m34.017 41.99-20 .019c-4.4.004-8.003-3.592-8.008-7.992l-.019-20c-.004-4.4 3.592-8.003 7.992-8.008l20-.019c4.4-.004 8.003 3.592 8.008 7.992l.019 20c.005 4.401-3.592 8.004-7.992 8.008z" fill="url(#a)"></path><path d="m34.017 41.99-20 .019c-4.4.004-8.003-3.592-8.008-7.992l-.019-20c-.004-4.4 3.592-8.003 7.992-8.008l20-.019c4.4-.004 8.003 3.592 8.008 7.992l.019 20c.005 4.401-3.592 8.004-7.992 8.008z" fill="url(#b)"></path><g fill="#fff"><path d="m24 31c-3.859 0-7-3.14-7-7s3.141-7 7-7 7 3.14 7 7-3.141 7-7 7zm0-12c-2.757 0-5 2.243-5 5s2.243 5 5 5 5-2.243 5-5-2.243-5-5-5z"></path><circle cx="31.5" cy="16.5" r="1.5"></circle><path d="m30 37h-12c-3.859 0-7-3.14-7-7v-12c0-3.86 3.141-7 7-7h12c3.859 0 7 3.14 7 7v12c0 3.86-3.141 7-7 7zm-12-24c-2.757 0-5 2.243-5 5v12c0 2.757 2.243 5 5 5h12c2.757 0 5-2.243 5-5v-12c0-2.757-2.243-5-5-5z"></path></g></svg>