<svg fill="none" height="348" viewBox="0 0 174 348" width="174" xmlns="http://www.w3.org/2000/svg"><path d="m107.413 13.245c21.111-8.74436 43.737-13.245 66.587-13.245v115.537c-7.677 0-15.28 1.512-22.373 4.45s-13.538 7.245-18.967 12.673c-5.428 5.429-9.735 11.874-12.673 18.967s-4.45 14.696-4.45 22.373 1.512 15.28 4.45 22.373 7.245 13.538 12.673 18.967c5.429 5.428 11.874 9.735 18.967 12.673s14.696 4.45 22.373 4.45v115.537c-22.85 0-45.476-4.501-66.587-13.245-21.1106-8.744-40.2922-21.561-56.4496-37.718-16.1574-16.158-28.9741-35.339-37.7185-56.45-8.74427-21.111-13.24491526-43.737-13.2449-66.587 0-22.85 4.50064-45.476 13.2449-66.587 8.7444-21.1105 21.5611-40.2922 37.7185-56.4496s35.339-28.9741 56.4496-37.7184z" fill="#1e5afa" opacity=".1"/></svg>