<svg fill="none" height="348" viewBox="0 0 174 348" width="174" xmlns="http://www.w3.org/2000/svg"><path d="m66.5869 13.245c-21.1106-8.74436-43.7369-13.245-66.5869-13.245v115.537c7.67749 0 15.2798 1.512 22.3729 4.45 7.093 2.938 13.538 7.245 18.9668 12.673 5.4288 5.429 9.7351 11.874 12.6732 18.967 2.938 7.093 4.4502 14.696 4.4502 22.373s-1.5121 15.28-4.4502 22.373c-2.938 7.093-7.2444 13.538-12.6732 18.967-5.4288 5.428-11.8737 9.735-18.9668 12.673s-14.69541 4.45-22.3729 4.45v115.537c22.85 0 45.4763-4.501 66.5869-13.245 21.1107-8.744 40.2921-21.561 56.4501-37.718 16.157-16.158 28.974-35.339 37.718-56.45s13.245-43.737 13.245-66.587-4.501-45.476-13.245-66.587c-8.744-21.1105-21.561-40.2922-37.718-56.4496-16.158-16.1574-35.3394-28.9741-56.4501-37.7184z" fill="#2980b9"/></svg>