<svg fill="none" height="1308" viewBox="0 0 706 1308" width="706" xmlns="http://www.w3.org/2000/svg"><path d="m107.35 1c-81.7911 15.2378-185.2335 171.626-12.8295 258.241 22.7195 8.821 80.3485 15.237 129.1025-29.674 60.943-56.139-16.038-170.0218-101.037-121.1-84.9989 48.921-46.5087 173.229 57.736 198.893 104.244 25.664 148.347 30.475 179.62 64.961 31.274 34.486 69.764 92.229 44.104 174.834-24.176 77.826-148.712 122.193-136.888 2.317 1.574-15.952 7.746-31.195 16.462-44.648 77.089-118.982 162.272-134.107 188.585-134.107 23.341 0 170.936 5.877 115.386 184.248-5.19 16.666-14.58 31.734-25.818 45.091-69.651 82.783-183.112 230.392-201.831 287.944-14.701 46.833-29.442 141.5 0 202.5 33.073 68.52 106.558 169.5 346.558 216.5" stroke="#8e44ad" stroke-linecap="round" stroke-width=".5"/></svg>